<svg xmlns="http://www.w3.org/2000/svg" width="32.579" height="31.775" viewBox="0 0 32.579 31.775"><title>github-icon</title><path d="M33.608,17.44A16.291,16.291,0,0,0,28.46,49.187c.815.149,1.112-.353,1.112-.785,0-.387-.014-1.411-.022-2.77-4.531.984-5.487-2.184-5.487-2.184a4.314,4.314,0,0,0-1.809-2.383c-1.479-1.011.112-.99.112-.99a3.422,3.422,0,0,1,2.5,1.679A3.468,3.468,0,0,0,29.6,43.107a3.481,3.481,0,0,1,1.034-2.178c-3.617-.411-7.42-1.809-7.42-8.051a6.3,6.3,0,0,1,1.677-4.371,5.859,5.859,0,0,1,.16-4.311s1.368-.438,4.479,1.67a15.44,15.44,0,0,1,8.156,0c3.11-2.108,4.475-1.67,4.475-1.67a5.851,5.851,0,0,1,.162,4.311A6.286,6.286,0,0,1,44,32.878c0,6.258-3.809,7.635-7.437,8.038a3.888,3.888,0,0,1,1.106,3.017c0,2.178-.02,3.935-.02,4.469,0,.436.293.942,1.12.783a16.292,16.292,0,0,0-5.16-31.745Z" transform="translate(-17.32 -17.44)" style="fill:#fff;fill-rule:evenodd"/></svg>